<svg width="239" height="323" viewBox="0 0 239 323" fill="none" xmlns="http://www.w3.org/2000/svg">
<g clip-path="url(#clip0_22_390)">
<rect width="239" height="323" fill="white"/>
<path d="M0 22C0 9.84974 9.84974 0 22 0H217C229.15 0 239 9.84974 239 22V301C239 313.15 229.15 323 217 323H22C9.84973 323 0 313.15 0 301V22Z" fill="#0D938C"/>
<path d="M201 102.5C201 118.516 188.016 131.5 172 131.5C155.984 131.5 143 118.516 143 102.5C143 86.4837 155.984 73.5 172 73.5C188.016 73.5 201 86.4837 201 102.5Z" fill="#7DEABB"/>
<path d="M116.5 46C123 48.5 126 56 126 56C107 63 93.3 105.3 136.5 96.5V107C96.9 113 97 88 99.5 74C85.5043 86.5962 78.0389 110.51 78.3203 122.185C80.8122 121.735 83.3787 121.5 86 121.5C109.748 121.5 129 140.752 129 164.5C129 188.248 109.748 207.5 86 207.5C62.2518 207.5 43 188.248 43 164.5C43 148.552 51.6813 134.632 64.5762 127.208C66.5176 108.366 79.0334 68.6771 116.5 46Z" fill="#7DEABB"/>
<path d="M207.272 303.272C203.509 303.272 200.155 302.479 197.208 300.892C194.307 299.26 192.017 297.039 190.34 294.228C188.708 291.372 187.892 288.108 187.892 284.436C187.892 280.719 188.663 277.455 190.204 274.644C191.791 271.788 193.967 269.567 196.732 267.98C199.497 266.348 202.671 265.532 206.252 265.532C209.788 265.532 212.825 266.325 215.364 267.912C217.903 269.453 219.829 271.607 221.144 274.372C222.504 277.092 223.184 280.243 223.184 283.824C223.184 284.685 222.889 285.411 222.3 286C221.711 286.544 220.963 286.816 220.056 286.816H192.652V281.376H219.852L217.064 283.28C217.019 281.013 216.565 278.996 215.704 277.228C214.843 275.415 213.619 273.987 212.032 272.944C210.445 271.901 208.519 271.38 206.252 271.38C203.668 271.38 201.447 271.947 199.588 273.08C197.775 274.213 196.392 275.777 195.44 277.772C194.488 279.721 194.012 281.943 194.012 284.436C194.012 286.929 194.579 289.151 195.712 291.1C196.845 293.049 198.409 294.591 200.404 295.724C202.399 296.857 204.688 297.424 207.272 297.424C208.677 297.424 210.105 297.175 211.556 296.676C213.052 296.132 214.253 295.52 215.16 294.84C215.84 294.341 216.565 294.092 217.336 294.092C218.152 294.047 218.855 294.273 219.444 294.772C220.215 295.452 220.623 296.2 220.668 297.016C220.713 297.832 220.351 298.535 219.58 299.124C218.039 300.348 216.112 301.345 213.8 302.116C211.533 302.887 209.357 303.272 207.272 303.272Z" fill="#7DEABB"/>
<path d="M166.406 303.272C163.233 303.272 160.286 302.796 157.566 301.844C154.891 300.847 152.806 299.6 151.31 298.104C150.63 297.379 150.335 296.563 150.426 295.656C150.562 294.704 151.015 293.933 151.786 293.344C152.693 292.619 153.577 292.324 154.438 292.46C155.345 292.551 156.115 292.936 156.75 293.616C157.521 294.477 158.745 295.293 160.422 296.064C162.145 296.789 164.049 297.152 166.134 297.152C168.763 297.152 170.758 296.721 172.118 295.86C173.523 294.999 174.249 293.888 174.294 292.528C174.339 291.168 173.682 289.989 172.322 288.992C171.007 287.995 168.582 287.179 165.046 286.544C160.467 285.637 157.135 284.277 155.05 282.464C153.01 280.651 151.99 278.429 151.99 275.8C151.99 273.488 152.67 271.584 154.03 270.088C155.39 268.547 157.135 267.413 159.266 266.688C161.397 265.917 163.618 265.532 165.93 265.532C168.922 265.532 171.574 266.008 173.886 266.96C176.198 267.912 178.034 269.227 179.394 270.904C180.029 271.629 180.323 272.4 180.278 273.216C180.233 273.987 179.847 274.644 179.122 275.188C178.397 275.687 177.535 275.845 176.538 275.664C175.541 275.483 174.702 275.075 174.022 274.44C172.889 273.352 171.665 272.604 170.35 272.196C169.035 271.788 167.517 271.584 165.794 271.584C163.799 271.584 162.099 271.924 160.694 272.604C159.334 273.284 158.654 274.281 158.654 275.596C158.654 276.412 158.858 277.16 159.266 277.84C159.719 278.475 160.581 279.064 161.85 279.608C163.119 280.107 164.978 280.605 167.426 281.104C170.826 281.784 173.501 282.645 175.45 283.688C177.445 284.731 178.873 285.955 179.734 287.36C180.595 288.72 181.026 290.307 181.026 292.12C181.026 294.205 180.459 296.087 179.326 297.764C178.238 299.441 176.606 300.779 174.43 301.776C172.299 302.773 169.625 303.272 166.406 303.272Z" fill="#7DEABB"/>
<path d="M136.502 303C135.505 303 134.666 302.683 133.986 302.048C133.352 301.368 133.034 300.529 133.034 299.532V269.272C133.034 268.229 133.352 267.391 133.986 266.756C134.666 266.121 135.505 265.804 136.502 265.804C137.545 265.804 138.384 266.121 139.018 266.756C139.653 267.391 139.97 268.229 139.97 269.272V299.532C139.97 300.529 139.653 301.368 139.018 302.048C138.384 302.683 137.545 303 136.502 303ZM136.502 259.752C135.278 259.752 134.213 259.321 133.306 258.46C132.445 257.553 132.014 256.488 132.014 255.264C132.014 254.04 132.445 252.997 133.306 252.136C134.213 251.229 135.278 250.776 136.502 250.776C137.726 250.776 138.769 251.229 139.63 252.136C140.537 252.997 140.99 254.04 140.99 255.264C140.99 256.488 140.537 257.553 139.63 258.46C138.769 259.321 137.726 259.752 136.502 259.752Z" fill="#7DEABB"/>
<path d="M102.616 279.744C102.616 277.024 103.274 274.599 104.588 272.468C105.948 270.292 107.762 268.569 110.028 267.3C112.295 266.031 114.788 265.396 117.508 265.396C120.228 265.396 122.246 265.849 123.56 266.756C124.92 267.617 125.442 268.66 125.124 269.884C124.988 270.519 124.716 271.017 124.308 271.38C123.946 271.697 123.515 271.901 123.016 271.992C122.518 272.083 121.974 272.06 121.384 271.924C118.483 271.335 115.876 271.289 113.564 271.788C111.252 272.287 109.416 273.216 108.056 274.576C106.742 275.936 106.084 277.659 106.084 279.744H102.616ZM102.684 303C101.596 303 100.758 302.728 100.168 302.184C99.5788 301.595 99.2842 300.733 99.2842 299.6V269.204C99.2842 268.116 99.5788 267.277 100.168 266.688C100.758 266.099 101.596 265.804 102.684 265.804C103.818 265.804 104.656 266.099 105.2 266.688C105.79 267.232 106.084 268.071 106.084 269.204V299.6C106.084 300.688 105.79 301.527 105.2 302.116C104.656 302.705 103.818 303 102.684 303Z" fill="#7DEABB"/>
<path d="M74.5258 303.272C70.7631 303.272 67.4084 302.479 64.4618 300.892C61.5604 299.26 59.2711 297.039 57.5938 294.228C55.9618 291.372 55.1458 288.108 55.1458 284.436C55.1458 280.719 55.9164 277.455 57.4578 274.644C59.0444 271.788 61.2204 269.567 63.9858 267.98C66.7511 266.348 69.9244 265.532 73.5058 265.532C77.0418 265.532 80.0791 266.325 82.6178 267.912C85.1564 269.453 87.0831 271.607 88.3978 274.372C89.7578 277.092 90.4378 280.243 90.4378 283.824C90.4378 284.685 90.1431 285.411 89.5538 286C88.9644 286.544 88.2164 286.816 87.3098 286.816H59.9058V281.376H87.1058L84.3178 283.28C84.2724 281.013 83.8191 278.996 82.9578 277.228C82.0964 275.415 80.8724 273.987 79.2858 272.944C77.6991 271.901 75.7724 271.38 73.5058 271.38C70.9218 271.38 68.7004 271.947 66.8418 273.08C65.0284 274.213 63.6458 275.777 62.6938 277.772C61.7418 279.721 61.2658 281.943 61.2658 284.436C61.2658 286.929 61.8324 289.151 62.9658 291.1C64.0991 293.049 65.6631 294.591 67.6577 295.724C69.6524 296.857 71.9418 297.424 74.5258 297.424C75.9311 297.424 77.3591 297.175 78.8098 296.676C80.3058 296.132 81.5071 295.52 82.4138 294.84C83.0938 294.341 83.8191 294.092 84.5898 294.092C85.4058 294.047 86.1084 294.273 86.6978 294.772C87.4684 295.452 87.8764 296.2 87.9218 297.016C87.9671 297.832 87.6044 298.535 86.8338 299.124C85.2924 300.348 83.3658 301.345 81.0538 302.116C78.7871 302.887 76.6111 303.272 74.5258 303.272Z" fill="#7DEABB"/>
<path d="M33.0739 303.272C29.4472 303.272 26.2059 302.456 23.3499 300.824C20.5392 299.147 18.3179 296.903 16.6859 294.092C15.0992 291.236 14.3059 288.017 14.3059 284.436C14.3059 280.764 15.0992 277.5 16.6859 274.644C18.2726 271.788 20.4486 269.567 23.2139 267.98C25.9792 266.348 29.1526 265.532 32.7339 265.532C35.4086 265.532 37.8566 266.053 40.0779 267.096C42.2992 268.093 44.2939 269.612 46.0619 271.652C46.6966 272.377 46.9232 273.125 46.7419 273.896C46.5606 274.667 46.0619 275.347 45.2459 275.936C44.6112 276.389 43.9086 276.548 43.1379 276.412C42.3672 276.231 41.6646 275.823 41.0299 275.188C38.8086 272.831 36.0432 271.652 32.7339 271.652C30.4219 271.652 28.3819 272.196 26.6139 273.284C24.8459 274.327 23.4632 275.8 22.4659 277.704C21.4686 279.608 20.9699 281.852 20.9699 284.436C20.9699 286.884 21.4686 289.06 22.4659 290.964C23.5086 292.868 24.9366 294.387 26.7499 295.52C28.5632 296.608 30.6712 297.152 33.0739 297.152C34.6606 297.152 36.0432 296.971 37.2219 296.608C38.4459 296.2 39.5566 295.588 40.5539 294.772C41.2792 294.183 42.0272 293.865 42.7979 293.82C43.5686 293.729 44.2486 293.933 44.8379 294.432C45.6086 295.067 46.0392 295.792 46.1299 296.608C46.2206 297.379 45.9486 298.081 45.3139 298.716C42.0499 301.753 37.9699 303.272 33.0739 303.272Z" fill="#7DEABB"/>
</g>
<defs>
<clipPath id="clip0_22_390">
<rect width="239" height="323" fill="white"/>
</clipPath>
</defs>
</svg>
