<svg width="409" height="140" viewBox="0 0 409 140" fill="none" xmlns="http://www.w3.org/2000/svg">
<g clip-path="url(#clip0_22_392)">
<rect width="409" height="140" fill="white"/>
<rect width="409" height="140" rx="27" fill="#0D938C"/>
<path d="M85 63.8988C85 69.17 80.7269 73.4431 75.4557 73.4431C70.1845 73.4431 65.9114 69.17 65.9114 63.8988C65.9114 58.6276 70.1845 54.3545 75.4557 54.3545C80.7269 54.3545 85 58.6276 85 63.8988Z" fill="#7DEABB"/>
<path d="M57.1899 45.3038C59.3291 46.1266 60.3165 48.5949 60.3165 48.5949C54.0633 50.8987 49.5544 64.8202 63.7722 61.924V65.3797C50.7392 67.3544 50.7722 59.1266 51.5949 54.519C46.9887 58.6646 44.5318 66.5349 44.6244 70.3772C45.4445 70.2293 46.2892 70.1519 47.1519 70.1519C54.9678 70.1519 61.3038 76.4879 61.3038 84.3038C61.3038 92.1197 54.9678 98.4557 47.1519 98.4557C39.336 98.4557 33 92.1197 33 84.3038C33 79.0552 35.8571 74.4738 40.101 72.0305C40.74 65.8294 44.8591 52.7672 57.1899 45.3038Z" fill="#7DEABB"/>
<path d="M344.217 97C339.539 97 335.369 96.0137 331.705 94.0411C328.098 92.0121 325.252 89.2504 323.166 85.756C321.137 82.2052 320.123 78.1472 320.123 73.582C320.123 68.9604 321.081 64.9024 322.997 61.408C324.97 57.8572 327.675 55.0955 331.113 53.1229C334.551 51.0939 338.497 50.0794 342.949 50.0794C347.345 50.0794 351.122 51.0657 354.278 53.0384C357.434 54.9546 359.829 57.6318 361.464 61.0698C363.155 64.4515 364 68.3686 364 72.8211C364 73.892 363.634 74.7937 362.901 75.5264C362.168 76.2028 361.238 76.5409 360.111 76.5409H326.041V69.7776H359.858L356.391 72.1448C356.335 69.3267 355.771 66.8186 354.7 64.6206C353.63 62.3661 352.108 60.5907 350.135 59.2944C348.163 57.9981 345.767 57.35 342.949 57.35C339.737 57.35 336.975 58.0545 334.664 59.4635C332.41 60.8725 330.691 62.817 329.507 65.2969C328.323 67.7204 327.732 70.4821 327.732 73.582C327.732 76.6818 328.436 79.4435 329.845 81.8671C331.254 84.2906 333.199 86.2069 335.679 87.6159C338.158 89.0249 341.005 89.7294 344.217 89.7294C345.964 89.7294 347.74 89.4194 349.543 88.7995C351.403 88.1231 352.897 87.3623 354.024 86.5169C354.87 85.8969 355.771 85.5869 356.729 85.5869C357.744 85.5305 358.618 85.8123 359.35 86.4323C360.308 87.2777 360.816 88.2077 360.872 89.2222C360.928 90.2367 360.477 91.1103 359.519 91.843C357.603 93.3647 355.208 94.6047 352.333 95.5628C349.515 96.5209 346.81 97 344.217 97Z" fill="#7DEABB"/>
<path d="M293.41 97C289.465 97 285.802 96.4082 282.42 95.2246C279.095 93.9847 276.502 92.4348 274.642 90.5748C273.797 89.6731 273.43 88.6586 273.543 87.5313C273.712 86.3478 274.276 85.3896 275.234 84.6569C276.361 83.7552 277.46 83.3888 278.531 83.5579C279.658 83.6706 280.616 84.1497 281.405 84.9951C282.364 86.066 283.885 87.0805 285.971 88.0386C288.112 88.9404 290.48 89.3913 293.072 89.3913C296.341 89.3913 298.821 88.8558 300.512 87.785C302.259 86.7141 303.161 85.3333 303.217 83.6424C303.274 81.9516 302.456 80.4862 300.765 79.2463C299.131 78.0063 296.116 76.9918 291.72 76.2028C286.027 75.0755 281.885 73.3847 279.292 71.1303C276.756 68.8758 275.488 66.1141 275.488 62.8452C275.488 59.9708 276.333 57.6036 278.024 55.7437C279.715 53.8274 281.885 52.4184 284.534 51.5166C287.182 50.5585 289.944 50.0794 292.819 50.0794C296.538 50.0794 299.836 50.6712 302.71 51.8548C305.584 53.0384 307.867 54.6728 309.558 56.7582C310.347 57.66 310.713 58.6181 310.657 59.6326C310.601 60.5907 310.121 61.408 309.22 62.0843C308.318 62.7043 307.247 62.9015 306.007 62.6761C304.767 62.4507 303.724 61.9434 302.879 61.1544C301.47 59.8017 299.948 58.8717 298.314 58.3645C296.679 57.8572 294.791 57.6036 292.65 57.6036C290.17 57.6036 288.056 58.0263 286.309 58.8717C284.618 59.7171 283.773 60.9571 283.773 62.5916C283.773 63.6061 284.026 64.536 284.534 65.3814C285.097 66.1705 286.168 66.9032 287.746 67.5795C289.324 68.1995 291.635 68.8195 294.678 69.4394C298.906 70.2849 302.231 71.3557 304.654 72.652C307.134 73.9483 308.91 75.4701 309.981 77.2173C311.051 78.9081 311.587 80.8807 311.587 83.1352C311.587 85.7278 310.882 88.0668 309.473 90.1521C308.121 92.2375 306.092 93.9002 303.386 95.1401C300.737 96.38 297.412 97 293.41 97Z" fill="#7DEABB"/>
<path d="M256.233 96.6618C254.993 96.6618 253.95 96.2673 253.105 95.4783C252.315 94.6328 251.921 93.5902 251.921 92.3502V54.7292C251.921 53.4329 252.315 52.3902 253.105 51.6011C253.95 50.8121 254.993 50.4176 256.233 50.4176C257.529 50.4176 258.572 50.8121 259.361 51.6011C260.15 52.3902 260.544 53.4329 260.544 54.7292V92.3502C260.544 93.5902 260.15 94.6328 259.361 95.4783C258.572 96.2673 257.529 96.6618 256.233 96.6618ZM256.233 42.8934C254.711 42.8934 253.386 42.3579 252.259 41.2871C251.188 40.1598 250.653 38.8354 250.653 37.3136C250.653 35.7919 251.188 34.4956 252.259 33.4247C253.386 32.2975 254.711 31.7339 256.233 31.7339C257.754 31.7339 259.051 32.2975 260.121 33.4247C261.249 34.4956 261.812 35.7919 261.812 37.3136C261.812 38.8354 261.249 40.1598 260.121 41.2871C259.051 42.3579 257.754 42.8934 256.233 42.8934Z" fill="#7DEABB"/>
<path d="M214.103 67.7486C214.103 64.367 214.92 61.3516 216.555 58.7027C218.246 55.9973 220.5 53.8556 223.318 52.2775C226.136 50.6994 229.236 49.9103 232.618 49.9103C235.999 49.9103 238.507 50.474 240.142 51.6012C241.833 52.672 242.481 53.9683 242.086 55.4901C241.917 56.2791 241.579 56.8991 241.072 57.35C240.621 57.7445 240.085 57.9982 239.465 58.1109C238.846 58.2236 238.169 58.1954 237.436 58.0263C233.829 57.2936 230.589 57.2373 227.714 57.8573C224.84 58.4772 222.557 59.6326 220.866 61.3235C219.232 63.0143 218.415 65.156 218.415 67.7486H214.103ZM214.188 96.6619C212.835 96.6619 211.792 96.3237 211.059 95.6474C210.327 94.9147 209.96 93.8438 209.96 92.4348V54.6447C209.96 53.292 210.327 52.2493 211.059 51.5166C211.792 50.7839 212.835 50.4176 214.188 50.4176C215.597 50.4176 216.639 50.7839 217.316 51.5166C218.048 52.193 218.415 53.2356 218.415 54.6447V92.4348C218.415 93.7875 218.048 94.8301 217.316 95.5628C216.639 96.2955 215.597 96.6619 214.188 96.6619Z" fill="#7DEABB"/>
<path d="M179.179 97C174.501 97 170.331 96.0137 166.667 94.0411C163.06 92.0121 160.214 89.2504 158.129 85.756C156.1 82.2052 155.085 78.1472 155.085 73.582C155.085 68.9604 156.043 64.9024 157.959 61.408C159.932 57.8572 162.637 55.0955 166.075 53.1229C169.514 51.0939 173.459 50.0794 177.911 50.0794C182.307 50.0794 186.084 51.0657 189.24 53.0384C192.396 54.9546 194.791 57.6318 196.426 61.0698C198.117 64.4515 198.962 68.3686 198.962 72.8211C198.962 73.892 198.596 74.7937 197.863 75.5264C197.13 76.2028 196.201 76.5409 195.073 76.5409H161.003V69.7776H194.82L191.353 72.1448C191.297 69.3267 190.733 66.8186 189.663 64.6206C188.592 62.3661 187.07 60.5907 185.097 59.2944C183.125 57.9981 180.729 57.35 177.911 57.35C174.699 57.35 171.937 58.0545 169.626 59.4635C167.372 60.8725 165.653 62.817 164.469 65.2969C163.286 67.7204 162.694 70.4821 162.694 73.582C162.694 76.6818 163.398 79.4435 164.807 81.8671C166.216 84.2906 168.161 86.2069 170.641 87.6159C173.121 89.0249 175.967 89.7294 179.179 89.7294C180.927 89.7294 182.702 89.4194 184.506 88.7995C186.365 88.1231 187.859 87.3623 188.986 86.5169C189.832 85.8969 190.733 85.5869 191.692 85.5869C192.706 85.5305 193.58 85.8123 194.312 86.4323C195.271 87.2777 195.778 88.2077 195.834 89.2222C195.891 90.2367 195.44 91.1103 194.481 91.843C192.565 93.3647 190.17 94.6047 187.295 95.5628C184.477 96.5209 181.772 97 179.179 97Z" fill="#7DEABB"/>
<path d="M127.644 97C123.135 97 119.105 95.9855 115.555 93.9565C112.06 91.8712 109.299 89.0813 107.27 85.5869C105.297 82.0361 104.311 78.0345 104.311 73.582C104.311 69.0167 105.297 64.9587 107.27 61.408C109.242 57.8572 111.947 55.0955 115.386 53.1229C118.824 51.0939 122.769 50.0794 127.221 50.0794C130.547 50.0794 133.59 50.7276 136.352 52.0239C139.114 53.2638 141.593 55.1519 143.791 57.6881C144.581 58.5899 144.862 59.5199 144.637 60.478C144.411 61.4362 143.791 62.2816 142.777 63.0143C141.988 63.5779 141.114 63.7751 140.156 63.6061C139.198 63.3806 138.324 62.8734 137.535 62.0843C134.774 59.1535 131.336 57.6881 127.221 57.6881C124.347 57.6881 121.811 58.3645 119.613 59.7171C117.415 61.0135 115.695 62.8452 114.456 65.2124C113.216 67.5795 112.596 70.3694 112.596 73.582C112.596 76.6255 113.216 79.3308 114.456 81.698C115.752 84.0651 117.527 85.9532 119.782 87.3623C122.036 88.7149 124.657 89.3913 127.644 89.3913C129.617 89.3913 131.336 89.1658 132.801 88.7149C134.323 88.2077 135.704 87.4468 136.944 86.4323C137.845 85.6996 138.775 85.3051 139.733 85.2487C140.692 85.136 141.537 85.3896 142.27 86.0096C143.228 86.7987 143.763 87.7004 143.876 88.7149C143.989 89.6731 143.651 90.5467 142.862 91.3357C138.804 95.1119 133.731 97 127.644 97Z" fill="#7DEABB"/>
</g>
<defs>
<clipPath id="clip0_22_392">
<rect width="409" height="140" fill="white"/>
</clipPath>
</defs>
</svg>
